<?xml version="1.0" encoding="UTF-8"?>
<svg id="Layer_2" data-name="Layer 2" xmlns="http://www.w3.org/2000/svg" viewBox="0 0 869.79 483.22">
  <defs>
    <style>
      .cls-1 {
        fill: #fff;
      }
    </style>
  </defs>
  <path class="cls-1" d="M176.14,140.3v95.61h-41.25v-95.61h-42.22v-32.86h125.5v32.86h-42.04Z"/>
  <path class="cls-1" d="M323.68,235.91v-48.74h-45.38v48.74h-41.28V107.44h41.28v46.87h45.38v-46.87h41.28v128.48h-41.28Z"/>
  <path class="cls-1" d="M387.03,231.79l13.89-150.97,56.37,9.76-37.66,146.86-32.6-5.64Z"/>
  <path class="cls-1" d="M567.36,235.91l-53.97-62.37v62.37h-37.92V107.44h36.05l53.97,63.3v-63.3h37.92v128.48h-36.05Z"/>
  <path class="cls-1" d="M718.07,107.44h51.15l-46.12,52.85,47.07,75.63h-48.74l-26.7-47.06-22.42,18.3v28.76h-41.28V107.44h41.28v54.9l45.76-54.9Z"/>
  <path class="cls-1" d="M315.46,384.4v-48.74h-45.38v48.74h-41.27v-128.48h41.27v46.87h45.38v-46.87h41.27v128.48h-41.27Z"/>
  <rect class="cls-1" x="383.07" y="285.8" width="37.16" height="98.6"/>
  <rect class="cls-1" x="383.07" y="249.01" width="37.16" height="25.21"/>
  <path class="cls-1" d="M481.47,384.4l-45.56-128.48h44.07l25.77,85.9h.75l25.96-85.9h42.2l-45.38,128.48h-47.81Z"/>
  <path class="cls-1" d="M591.84,255.92h111.11v30.81h-69.84v17.74h59.76v29.51h-59.76v19.61h71.15v30.81h-112.41v-128.48Z"/>
</svg>