<?xml version="1.0" encoding="UTF-8"?>
<svg id="Layer_2" data-name="Layer 2" xmlns="http://www.w3.org/2000/svg" viewBox="0 0 1282.9 708.68">
  <defs>
    <style>
      .cls-1 {
        fill: #fff;
      }
    </style>
  </defs>
  <path d="M277.07,222.59v136.47h-58.87v-136.47h-60.26v-46.91h179.13v46.91h-60Z"/>
  <path d="M487.65,359.06v-69.57h-64.77v69.57h-58.91v-183.38h58.91v66.9h64.77v-66.9h58.91v183.38h-58.91Z"/>
  <path class="cls-1" d="M578.08,353.17l19.83-215.49,80.46,13.93-53.76,209.62-46.53-8.05Z"/>
  <path d="M835.48,359.06l-77.03-89.02v89.02h-54.12v-183.38h51.45l77.03,90.36v-90.36h54.12v183.38h-51.45Z"/>
  <path d="M1050.6,175.68h73.01l-65.83,75.43,67.18,107.95h-69.57l-38.11-67.17-32,26.12v41.05h-58.91v-183.38h58.91v78.36l65.31-78.36Z"/>
  <path d="M475.93,571v-69.57h-64.77v69.57h-58.9v-183.38h58.9v66.9h64.77v-66.9h58.9v183.38h-58.9Z"/>
  <rect x="572.43" y="430.27" width="53.04" height="140.74"/>
  <rect class="cls-1" x="572.43" y="377.75" width="53.04" height="35.99"/>
  <path d="M712.88,571l-65.03-183.38h62.91l36.78,122.61h1.07l37.05-122.61h60.24l-64.77,183.38h-68.24Z"/>
  <path d="M870.42,387.62h158.59v43.98h-99.68v25.31h85.29v42.11h-85.29v27.99h101.55v43.98h-160.45v-183.38Z"/>
</svg>